<?xml version="1.0" standalone="no"?>
<!DOCTYPE svg PUBLIC "-//W3C//DTD SVG 20010904//EN"
 "http://www.w3.org/TR/2001/REC-SVG-20010904/DTD/svg10.dtd">
<svg version="1.0" xmlns="http://www.w3.org/2000/svg"
 width="300.000000pt" height="245.000000pt" viewBox="0 0 300.000000 245.000000"
 preserveAspectRatio="xMidYMid meet">
<metadata>
Created by potrace 1.10, written by Peter Selinger 2001-2011
</metadata>
<g transform="translate(0.000000,245.000000) scale(0.100000,-0.100000)"
fill="#3163ba" stroke="none">
<path d="M942 2142 l-152 -147 0 -390 0 -390 133 -133 132 -132 55 0 c48 0 57
-3 65 -22 6 -13 20 -24 33 -26 l23 -3 -25 -20 c-22 -17 -42 -19 -220 -19
l-196 0 1 -202 2 -203 152 -148 153 -147 397 0 396 0 154 148 153 147 1 375 1
375 -133 133 -132 132 -110 0 c-102 0 -113 2 -148 26 -21 14 -37 27 -35 29 2
2 33 0 68 -5 66 -9 90 -2 90 26 0 11 37 14 200 14 l200 0 0 218 0 218 -154
147 -154 147 -399 0 -398 -1 -153 -147z m1081 -28 l137 -136 0 -194 0 -194
-207 0 c-161 0 -204 -3 -195 -12 7 -7 12 -18 12 -25 0 -14 -80 -9 -138 9 -18
5 -36 8 -39 5 -11 -12 35 -70 78 -98 43 -27 52 -29 145 -29 l99 0 122 -122
123 -123 0 -362 0 -361 -142 -136 -142 -136 -381 0 -381 0 -142 136 -142 136
0 174 0 174 206 0 c180 0 205 2 194 15 -16 20 -5 33 35 41 62 11 109 65 71 80
-8 3 -28 -2 -45 -10 -29 -15 -91 -22 -91 -10 0 3 5 14 10 25 10 18 7 19 -62
19 l-73 0 -122 122 -123 123 0 377 0 377 138 135 137 135 390 1 390 0 138
-136z"/>
<path d="M1007 2103 c-67 -64 -128 -123 -134 -132 -10 -11 -13 -101 -13 -371
l0 -355 113 -113 112 -112 110 0 c121 0 155 12 155 54 0 21 -5 23 -57 25 -31
1 -59 4 -62 7 -8 8 56 63 113 97 28 17 48 38 52 53 9 34 2 37 -39 18 -44 -21
-96 -12 -76 12 7 9 30 24 50 35 37 18 67 55 55 66 -3 3 -18 1 -33 -5 -15 -6
-45 -13 -67 -16 -21 -3 -47 -13 -57 -22 -27 -24 -31 -14 -18 45 11 54 11 53
119 134 62 45 87 121 28 84 -25 -16 -136 -28 -143 -16 -8 11 69 73 134 108 98
52 106 81 21 73 -28 -2 -50 0 -50 5 0 5 19 20 43 33 60 33 72 60 26 60 -38 0
-14 38 39 60 30 13 28 30 -3 30 -34 0 -31 11 10 38 38 24 42 34 21 51 -13 11
-12 15 5 32 10 10 19 28 19 38 0 11 5 23 10 26 6 3 10 -3 10 -14 0 -12 9 -30
19 -40 13 -13 16 -22 9 -29 -13 -13 -2 -32 18 -32 18 0 18 -9 -2 -31 -14 -15
-12 -19 18 -48 30 -28 31 -31 15 -43 -17 -13 -16 -15 12 -36 37 -27 39 -39 9
-44 -38 -5 -26 -31 27 -60 63 -34 65 -53 6 -53 -24 0 -46 -4 -48 -10 -1 -5 27
-25 65 -42 l67 -33 208 0 207 0 0 163 c0 144 -2 166 -18 183 -10 10 -70 70
-133 132 l-116 112 -367 0 -368 0 -121 -117z"/>
<path d="M1772 1366 c20 -63 9 -68 -77 -35 -42 16 -81 27 -86 23 -26 -16 5
-54 78 -94 62 -34 63 -50 3 -50 -27 0 -60 4 -74 10 -20 7 -26 6 -26 -4 0 -17
35 -49 95 -83 52 -31 95 -82 95 -115 0 -15 -3 -17 -19 -8 -11 5 -30 10 -43 10
-13 0 -33 7 -44 15 -27 20 -34 19 -34 -9 0 -21 11 -30 63 -55 40 -19 68 -40
75 -55 15 -34 3 -38 -54 -21 -62 19 -84 19 -84 0 0 -24 42 -55 83 -62 41 -6
58 -26 38 -46 -20 -20 -12 -41 25 -71 38 -30 64 -79 64 -121 0 -33 -13 -32
-72 7 -37 23 -67 33 -116 38 -37 5 -77 11 -89 15 -23 7 -23 7 -23 -109 0 -144
10 -170 85 -227 87 -67 114 -79 176 -79 l56 0 132 126 131 126 0 342 0 341
-113 113 -112 112 -72 0 -71 0 10 -34z"/>
<path d="M867 783 c-4 -3 -7 -70 -7 -149 l0 -142 131 -126 131 -126 60 0 c74
0 104 16 148 82 19 28 48 60 63 73 20 15 32 36 38 66 11 61 11 279 -1 279 -5
0 -26 -11 -46 -25 -21 -15 -51 -25 -71 -25 -36 0 -121 -38 -142 -64 -20 -24
-31 -19 -31 14 0 50 26 98 65 121 19 12 35 23 35 25 0 7 -366 4 -373 -3z"/>
</g>
</svg>
