<?xml version="1.0" standalone="no"?>
<!DOCTYPE svg PUBLIC "-//W3C//DTD SVG 20010904//EN"
 "http://www.w3.org/TR/2001/REC-SVG-20010904/DTD/svg10.dtd">
<svg version="1.0" xmlns="http://www.w3.org/2000/svg"
 width="293.000000pt" height="293.000000pt" viewBox="0 0 293.000000 293.000000"
 preserveAspectRatio="xMidYMid meet">
<metadata>
Created by potrace 1.10, written by Peter Selinger 2001-2011
</metadata>
<g transform="translate(0.000000,293.000000) scale(0.100000,-0.100000)"
fill="#3163ba" stroke="none">
<path d="M1360 2673 c-52 -31 -128 -75 -168 -98 l-73 -42 443 -255 c244 -141
478 -276 521 -302 l77 -46 -2 203 -3 202 -339 198 c-186 108 -344 197 -350
196 -6 0 -54 -26 -106 -56z m238 -47 c70 -40 168 -97 217 -126 50 -29 133 -77
185 -108 141 -82 130 -63 129 -226 0 -78 -3 -148 -7 -157 -6 -14 -39 1 -197
93 -104 60 -224 129 -265 152 -217 123 -447 259 -458 271 -12 10 3 22 85 70
54 32 116 68 138 81 22 13 41 24 43 24 1 0 60 -33 130 -74z"/>
<path d="M703 2296 l-332 -191 -3 -205 c-2 -113 -2 -206 -2 -208 1 -2 89 47
195 109 107 62 338 195 514 297 176 101 321 185 323 187 4 4 -347 205 -356
204 -4 -1 -156 -87 -339 -193z m484 79 c73 -42 135 -80 138 -84 4 -8 -106 -78
-210 -135 -16 -9 -37 -21 -45 -26 -8 -6 -71 -42 -140 -81 -69 -40 -138 -80
-155 -89 -16 -10 -88 -51 -160 -92 -71 -41 -145 -85 -164 -96 -19 -12 -38 -19
-43 -16 -4 3 -8 77 -8 164 l0 159 28 19 c15 11 43 29 62 40 19 10 125 71 235
134 208 120 314 178 323 178 4 0 66 -34 139 -75z"/>
<path d="M2230 1699 c0 -325 3 -589 8 -587 4 2 78 44 165 93 l157 90 0 200 c0
110 3 290 6 400 l6 200 -88 50 c-49 28 -125 71 -168 98 -44 26 -81 47 -83 47
-1 0 -3 -266 -3 -591z m223 428 c37 -22 70 -45 74 -51 11 -18 3 -749 -9 -763
-10 -12 -208 -126 -240 -138 -17 -7 -18 22 -18 517 0 289 3 528 7 531 6 7 47
-15 186 -96z"/>
<path d="M1413 1816 c-89 -29 -142 -96 -143 -178 0 -91 46 -141 197 -214 86
-41 116 -61 128 -84 23 -44 18 -69 -19 -106 -31 -31 -39 -34 -95 -34 -59 0
-171 29 -199 52 -17 15 -19 11 -14 -54 4 -54 5 -58 35 -67 153 -47 290 -34
371 38 54 48 73 163 38 231 -23 43 -98 95 -192 134 -79 32 -130 73 -130 105 0
33 20 68 47 80 33 15 128 14 191 -3 l52 -13 0 52 c0 51 -1 53 -32 59 -71 15
-193 16 -235 2z m-17 -80 c-42 -42 -52 -82 -33 -127 20 -48 40 -63 168 -127
131 -66 159 -96 159 -171 0 -55 -27 -103 -72 -131 -57 -34 -73 -25 -28 16 41
37 62 87 53 126 -13 51 -53 87 -156 137 -116 57 -138 73 -161 118 -31 62 -10
138 46 173 51 31 63 24 24 -14z"/>
<path d="M545 1708 l-170 -99 -6 -222 c-4 -122 -7 -296 -8 -387 l-1 -165 113
-64 c61 -36 141 -82 176 -103 35 -21 65 -37 68 -35 2 2 2 267 1 589 l-3 585
-170 -99z m148 -57 c-1 -48 -4 -281 -7 -520 -3 -239 -8 -436 -10 -438 -2 -3
-39 17 -83 44 -43 26 -94 57 -115 67 -83 44 -76 9 -82 403 l-5 353 24 28 c13
16 42 37 64 47 23 10 41 22 41 27 0 4 9 8 19 8 11 0 21 4 23 9 4 12 100 59
118 58 12 -1 15 -16 13 -86z"/>
<path d="M2535 1201 c-6 -5 -226 -134 -490 -286 -264 -152 -483 -280 -487
-283 -8 -8 299 -187 322 -187 9 0 165 85 347 189 l332 190 3 193 c3 188 0 210
-27 184z m-5 -199 c0 -129 -2 -151 -17 -164 -16 -13 -69 -44 -213 -125 -19
-11 -100 -57 -180 -103 -80 -45 -164 -93 -187 -106 -23 -13 -47 -24 -52 -24
-11 0 -216 114 -238 132 -7 6 -13 14 -13 18 0 7 159 105 250 153 19 11 55 31
80 47 44 27 186 108 388 221 20 12 42 25 48 30 17 14 118 69 127 69 4 0 7 -67
7 -148z"/>
<path d="M790 783 l0 -198 327 -190 c180 -104 332 -191 339 -193 8 -2 277 143
341 185 8 5 -157 105 -445 271 -251 144 -481 276 -509 293 l-53 31 0 -199z
m88 109 c15 -10 52 -31 82 -47 30 -15 79 -43 108 -62 29 -18 54 -33 56 -33 3
0 44 -23 93 -51 110 -64 143 -83 191 -110 20 -12 49 -30 64 -40 14 -11 30 -19
34 -19 8 0 176 -99 208 -123 19 -14 19 -15 -8 -32 -38 -25 -85 -52 -126 -73
-19 -9 -40 -22 -47 -28 -6 -6 -26 -17 -44 -24 -28 -12 -36 -11 -63 5 -17 10
-56 31 -86 48 -30 16 -67 38 -82 49 -14 10 -29 18 -33 18 -4 0 -27 14 -52 30
-24 17 -46 30 -47 30 -2 0 -34 18 -70 40 -36 22 -68 40 -71 40 -11 0 -141 84
-151 98 -7 9 -11 70 -12 159 -1 157 2 162 56 125z"/>
</g>
</svg>
