<?xml version="1.0" standalone="no"?>
<!DOCTYPE svg PUBLIC "-//W3C//DTD SVG 20010904//EN"
 "http://www.w3.org/TR/2001/REC-SVG-20010904/DTD/svg10.dtd">
<svg version="1.0" xmlns="http://www.w3.org/2000/svg"
 width="187.000000pt" height="187.000000pt" viewBox="0 0 187.000000 187.000000"
 preserveAspectRatio="xMidYMid meet">
<metadata>
Created by potrace 1.16, written by Peter Selinger 2001-2019
</metadata>
<g transform="translate(0.000000,187.000000) scale(0.100000,-0.100000)"
fill="#000000" stroke="none">
<path d="M542 1468 c-19 -19 -17 -1061 2 -1077 9 -7 38 -11 73 -9 l58 3 3 192
2 191 89 81 88 80 184 -274 184 -274 76 -1 c50 0 80 4 87 13 7 9 -47 95 -208
327 l-218 315 205 206 c153 154 202 209 197 222 -5 14 -20 17 -88 17 l-81 0
-255 -255 -255 -255 -5 252 -5 253 -60 3 c-38 2 -65 -2 -73 -10z"/>
</g>
</svg>
